# xmcd
#
# Track frame offsets:
#	150
#	20525
#	37025
#	53675
#	71017
#	86067
#	100725
#	116040
#	129910
#	149840
#	162100
#	181380
#	199392
#	219575
#	238360
#	246692
#	261945
#	283050
#
# Disc length: 3980 seconds
#
# Revision: 1
# Processed by: cddbd v1.4PL0 Copyright (c) Steve Scherf et al.
# Submitted via: EasyCDDAExtractor 6.2.0.3
#
DISCID=210f8a12
DTITLE=서울모테트 합창단 - 명성가 4집
DYEAR=1997
DGENRE=Gospel
TTITLE0=성가 메들리
TTITLE1=아름다운 대지
TTITLE2=여호와는 나의 목자시니
TTITLE3=아름다운 옛 이야기
TTITLE4=시편 110편
TTITLE5=주께 갑니다
TTITLE6=내 영혼의 구주
TTITLE7=나의 눈을 들리라
TTITLE8=내 목자는 사랑의 왕
TTITLE9=노래로 하나님께 찬양
TTITLE10=주는 저 산밑의 백합
TTITLE11=주의 동산으로
TTITLE12=나 깊은 곳에서
TTITLE13=목마른 사슴같이
TTITLE14=할렐루야 아멘
TTITLE15=하나님이 세상을 사랑하사
TTITLE16=새날을 맞았네
TTITLE17=십자가 군병
EXTD=
EXTT0=
EXTT1=
EXTT2=
EXTT3=
EXTT4=
EXTT5=
EXTT6=
EXTT7=
EXTT8=
EXTT9=
EXTT10=
EXTT11=
EXTT12=
EXTT13=
EXTT14=
EXTT15=
EXTT16=
EXTT17=
PLAYORDER=
